<svg xmlns="http://www.w3.org/2000/svg" xmlns:xlink="http://www.w3.org/1999/xlink" width="320" zoomAndPan="magnify" viewBox="0 0 240 74.999997" height="100" preserveAspectRatio="xMidYMid meet" version="1.0"><defs><g/></defs><g fill="rgb(15.289307%, 25.878906%, 27.449036%)" fill-opacity="1"><g transform="translate(6.052076, 45.939557)"><g><path d="M 16.015625 -11.21875 C 15.660156 -11.039062 15.265625 -10.894531 14.828125 -10.78125 C 14.398438 -10.664062 13.9375 -10.546875 13.4375 -10.421875 L 10.46875 -9.796875 C 9.96875 -9.679688 9.488281 -9.554688 9.03125 -9.421875 C 8.570312 -9.296875 8.171875 -9.117188 7.828125 -8.890625 C 7.484375 -8.671875 7.21875 -8.382812 7.03125 -8.03125 C 6.84375 -7.675781 6.75 -7.234375 6.75 -6.703125 C 6.75 -5.835938 7.085938 -5.15625 7.765625 -4.65625 C 8.441406 -4.15625 9.269531 -3.90625 10.25 -3.90625 C 10.863281 -3.90625 11.507812 -3.984375 12.1875 -4.140625 C 12.875 -4.304688 13.5 -4.550781 14.0625 -4.875 C 14.625 -5.207031 15.085938 -5.640625 15.453125 -6.171875 C 15.828125 -6.703125 16.015625 -7.320312 16.015625 -8.03125 Z M 21.421875 -3.765625 C 21.421875 -2.617188 21.523438 -1.765625 21.734375 -1.203125 C 21.941406 -0.640625 22.117188 -0.238281 22.265625 0 L 16.546875 0 C 16.367188 -0.269531 16.234375 -0.601562 16.140625 -1 C 16.054688 -1.394531 16.015625 -1.742188 16.015625 -2.046875 C 13.878906 -0.328125 11.4375 0.53125 8.6875 0.53125 C 7.625 0.53125 6.625 0.367188 5.6875 0.046875 C 4.757812 -0.273438 3.957031 -0.738281 3.28125 -1.34375 C 2.601562 -1.957031 2.0625 -2.695312 1.65625 -3.5625 C 1.257812 -4.4375 1.0625 -5.421875 1.0625 -6.515625 C 1.0625 -7.609375 1.257812 -8.5625 1.65625 -9.375 C 2.0625 -10.195312 2.585938 -10.878906 3.234375 -11.421875 C 3.890625 -11.972656 4.625 -12.414062 5.4375 -12.75 C 6.25 -13.09375 7.066406 -13.351562 7.890625 -13.53125 L 10.15625 -13.96875 C 10.632812 -14.0625 11.144531 -14.160156 11.6875 -14.265625 C 12.238281 -14.367188 12.78125 -14.476562 13.3125 -14.59375 C 13.84375 -14.707031 14.335938 -14.820312 14.796875 -14.9375 C 15.253906 -15.0625 15.660156 -15.179688 16.015625 -15.296875 L 16.015625 -15.96875 C 16.015625 -17.0625 15.597656 -17.804688 14.765625 -18.203125 C 13.941406 -18.609375 12.9375 -18.8125 11.75 -18.8125 C 10.15625 -18.8125 9.0625 -18.554688 8.46875 -18.046875 C 7.875 -17.546875 7.578125 -16.675781 7.578125 -15.4375 L 2.171875 -15.65625 C 2.171875 -16.988281 2.4375 -18.113281 2.96875 -19.03125 C 3.5 -19.945312 4.207031 -20.703125 5.09375 -21.296875 C 5.988281 -21.890625 7.007812 -22.316406 8.15625 -22.578125 C 9.3125 -22.847656 10.507812 -22.984375 11.75 -22.984375 C 12.96875 -22.984375 14.148438 -22.898438 15.296875 -22.734375 C 16.453125 -22.566406 17.488281 -22.21875 18.40625 -21.6875 C 19.320312 -21.15625 20.050781 -20.410156 20.59375 -19.453125 C 21.144531 -18.492188 21.421875 -17.210938 21.421875 -15.609375 Z M 21.421875 -3.765625 "/></g></g></g><g fill="rgb(15.289307%, 25.878906%, 27.449036%)" fill-opacity="1"><g transform="translate(29.864643, 45.939557)"><g><path d="M 17.125 -15.34375 C 16.800781 -16.082031 16.179688 -16.789062 15.265625 -17.46875 C 14.347656 -18.15625 13.085938 -18.515625 11.484375 -18.546875 C 10.210938 -18.546875 9.207031 -18.351562 8.46875 -17.96875 C 7.726562 -17.582031 7.359375 -17.050781 7.359375 -16.375 C 7.359375 -15.71875 7.707031 -15.234375 8.40625 -14.921875 C 9.101562 -14.617188 9.972656 -14.367188 11.015625 -14.171875 C 12.066406 -13.984375 13.207031 -13.785156 14.4375 -13.578125 C 15.664062 -13.367188 16.800781 -13.035156 17.84375 -12.578125 C 18.894531 -12.117188 19.769531 -11.484375 20.46875 -10.671875 C 21.164062 -9.859375 21.515625 -8.738281 21.515625 -7.3125 C 21.515625 -5.957031 21.234375 -4.785156 20.671875 -3.796875 C 20.109375 -2.804688 19.367188 -1.992188 18.453125 -1.359375 C 17.535156 -0.722656 16.46875 -0.25 15.25 0.0625 C 14.039062 0.375 12.800781 0.53125 11.53125 0.53125 C 8.875 0.53125 6.648438 0.132812 4.859375 -0.65625 C 3.066406 -1.457031 1.671875 -2.421875 0.671875 -3.546875 L 4.75 -6.703125 C 5.363281 -5.785156 6.234375 -5.085938 7.359375 -4.609375 C 8.484375 -4.140625 9.769531 -3.90625 11.21875 -3.90625 C 11.875 -3.90625 12.46875 -3.984375 13 -4.140625 C 13.53125 -4.304688 13.988281 -4.515625 14.375 -4.765625 C 14.757812 -5.015625 15.050781 -5.296875 15.25 -5.609375 C 15.457031 -5.921875 15.5625 -6.222656 15.5625 -6.515625 C 15.5625 -7.140625 15.222656 -7.609375 14.546875 -7.921875 C 13.867188 -8.234375 13.007812 -8.488281 11.96875 -8.6875 C 10.9375 -8.894531 9.820312 -9.109375 8.625 -9.328125 C 7.425781 -9.554688 6.304688 -9.90625 5.265625 -10.375 C 4.234375 -10.851562 3.378906 -11.503906 2.703125 -12.328125 C 2.023438 -13.160156 1.6875 -14.285156 1.6875 -15.703125 C 1.6875 -16.972656 1.941406 -18.066406 2.453125 -18.984375 C 2.972656 -19.898438 3.675781 -20.65625 4.5625 -21.25 C 5.457031 -21.84375 6.507812 -22.28125 7.71875 -22.5625 C 8.925781 -22.84375 10.226562 -22.984375 11.625 -22.984375 C 12.957031 -22.984375 14.140625 -22.832031 15.171875 -22.53125 C 16.203125 -22.238281 17.09375 -21.875 17.84375 -21.4375 C 18.601562 -21.007812 19.234375 -20.5625 19.734375 -20.09375 C 20.242188 -19.625 20.628906 -19.222656 20.890625 -18.890625 Z M 17.125 -15.34375 "/></g></g></g><g fill="rgb(15.289307%, 25.878906%, 27.449036%)" fill-opacity="1"><g transform="translate(52.036493, 45.939557)"><g><path d="M 17.125 -15.34375 C 16.800781 -16.082031 16.179688 -16.789062 15.265625 -17.46875 C 14.347656 -18.15625 13.085938 -18.515625 11.484375 -18.546875 C 10.210938 -18.546875 9.207031 -18.351562 8.46875 -17.96875 C 7.726562 -17.582031 7.359375 -17.050781 7.359375 -16.375 C 7.359375 -15.71875 7.707031 -15.234375 8.40625 -14.921875 C 9.101562 -14.617188 9.972656 -14.367188 11.015625 -14.171875 C 12.066406 -13.984375 13.207031 -13.785156 14.4375 -13.578125 C 15.664062 -13.367188 16.800781 -13.035156 17.84375 -12.578125 C 18.894531 -12.117188 19.769531 -11.484375 20.46875 -10.671875 C 21.164062 -9.859375 21.515625 -8.738281 21.515625 -7.3125 C 21.515625 -5.957031 21.234375 -4.785156 20.671875 -3.796875 C 20.109375 -2.804688 19.367188 -1.992188 18.453125 -1.359375 C 17.535156 -0.722656 16.46875 -0.25 15.25 0.0625 C 14.039062 0.375 12.800781 0.53125 11.53125 0.53125 C 8.875 0.53125 6.648438 0.132812 4.859375 -0.65625 C 3.066406 -1.457031 1.671875 -2.421875 0.671875 -3.546875 L 4.75 -6.703125 C 5.363281 -5.785156 6.234375 -5.085938 7.359375 -4.609375 C 8.484375 -4.140625 9.769531 -3.90625 11.21875 -3.90625 C 11.875 -3.90625 12.46875 -3.984375 13 -4.140625 C 13.53125 -4.304688 13.988281 -4.515625 14.375 -4.765625 C 14.757812 -5.015625 15.050781 -5.296875 15.25 -5.609375 C 15.457031 -5.921875 15.5625 -6.222656 15.5625 -6.515625 C 15.5625 -7.140625 15.222656 -7.609375 14.546875 -7.921875 C 13.867188 -8.234375 13.007812 -8.488281 11.96875 -8.6875 C 10.9375 -8.894531 9.820312 -9.109375 8.625 -9.328125 C 7.425781 -9.554688 6.304688 -9.90625 5.265625 -10.375 C 4.234375 -10.851562 3.378906 -11.503906 2.703125 -12.328125 C 2.023438 -13.160156 1.6875 -14.285156 1.6875 -15.703125 C 1.6875 -16.972656 1.941406 -18.066406 2.453125 -18.984375 C 2.972656 -19.898438 3.675781 -20.65625 4.5625 -21.25 C 5.457031 -21.84375 6.507812 -22.28125 7.71875 -22.5625 C 8.925781 -22.84375 10.226562 -22.984375 11.625 -22.984375 C 12.957031 -22.984375 14.140625 -22.832031 15.171875 -22.53125 C 16.203125 -22.238281 17.09375 -21.875 17.84375 -21.4375 C 18.601562 -21.007812 19.234375 -20.5625 19.734375 -20.09375 C 20.242188 -19.625 20.628906 -19.222656 20.890625 -18.890625 Z M 17.125 -15.34375 "/></g></g></g><g fill="rgb(15.289307%, 25.878906%, 27.449036%)" fill-opacity="1"><g transform="translate(74.208343, 45.939557)"><g><path d="M 17.828125 -14.109375 C 17.828125 -14.398438 17.726562 -14.796875 17.53125 -15.296875 C 17.34375 -15.804688 17.039062 -16.296875 16.625 -16.765625 C 16.21875 -17.242188 15.695312 -17.660156 15.0625 -18.015625 C 14.425781 -18.367188 13.648438 -18.546875 12.734375 -18.546875 C 11.128906 -18.546875 9.832031 -18.109375 8.84375 -17.234375 C 7.851562 -16.359375 7.210938 -15.316406 6.921875 -14.109375 Z M 6.921875 -9.9375 C 6.953125 -9.101562 7.128906 -8.347656 7.453125 -7.671875 C 7.773438 -6.992188 8.207031 -6.414062 8.75 -5.9375 C 9.300781 -5.46875 9.914062 -5.097656 10.59375 -4.828125 C 11.28125 -4.566406 11.992188 -4.4375 12.734375 -4.4375 C 13.796875 -4.4375 14.703125 -4.566406 15.453125 -4.828125 C 16.210938 -5.097656 16.847656 -5.410156 17.359375 -5.765625 C 17.878906 -6.117188 18.28125 -6.472656 18.5625 -6.828125 C 18.84375 -7.179688 19.054688 -7.445312 19.203125 -7.625 L 23.78125 -4.96875 C 23.363281 -4.320312 22.835938 -3.671875 22.203125 -3.015625 C 21.566406 -2.367188 20.804688 -1.773438 19.921875 -1.234375 C 19.035156 -0.703125 18 -0.273438 16.8125 0.046875 C 15.625 0.367188 14.265625 0.53125 12.734375 0.53125 C 10.898438 0.53125 9.269531 0.238281 7.84375 -0.34375 C 6.425781 -0.9375 5.226562 -1.757812 4.25 -2.8125 C 3.28125 -3.863281 2.535156 -5.101562 2.015625 -6.53125 C 1.492188 -7.96875 1.234375 -9.53125 1.234375 -11.21875 C 1.234375 -12.90625 1.492188 -14.460938 2.015625 -15.890625 C 2.535156 -17.328125 3.28125 -18.570312 4.25 -19.625 C 5.226562 -20.675781 6.425781 -21.5 7.84375 -22.09375 C 9.269531 -22.6875 10.898438 -22.984375 12.734375 -22.984375 C 14.597656 -22.984375 16.207031 -22.675781 17.5625 -22.0625 C 18.925781 -21.457031 20.050781 -20.59375 20.9375 -19.46875 C 21.820312 -18.34375 22.472656 -16.972656 22.890625 -15.359375 C 23.304688 -13.753906 23.515625 -11.945312 23.515625 -9.9375 Z M 6.921875 -9.9375 "/></g></g></g><g fill="rgb(15.289307%, 25.878906%, 27.449036%)" fill-opacity="1"><g transform="translate(98.863447, 45.939557)"><g><path d="M 3.5 -30.390625 L 8.921875 -30.390625 L 8.921875 -22.453125 L 13.75 -22.453125 L 13.75 -18.546875 L 8.921875 -18.546875 L 8.921875 -7.1875 C 8.921875 -6.300781 9.066406 -5.617188 9.359375 -5.140625 C 9.648438 -4.671875 10.316406 -4.4375 11.359375 -4.4375 C 11.742188 -4.4375 12.132812 -4.460938 12.53125 -4.515625 C 12.925781 -4.578125 13.332031 -4.640625 13.75 -4.703125 L 13.75 -0.265625 C 13.101562 -0.117188 12.4375 0.00390625 11.75 0.109375 C 11.070312 0.210938 10.304688 0.265625 9.453125 0.265625 C 7.234375 0.265625 5.6875 -0.207031 4.8125 -1.15625 C 3.9375 -2.101562 3.5 -3.429688 3.5 -5.140625 L 3.5 -18.546875 L 0.21875 -18.546875 L 0.21875 -22.453125 L 3.5 -22.453125 Z M 3.5 -30.390625 "/></g></g></g><g fill="rgb(15.289307%, 25.878906%, 27.449036%)" fill-opacity="1"><g transform="translate(112.831715, 45.939557)"><g><path d="M 17.125 -15.34375 C 16.800781 -16.082031 16.179688 -16.789062 15.265625 -17.46875 C 14.347656 -18.15625 13.085938 -18.515625 11.484375 -18.546875 C 10.210938 -18.546875 9.207031 -18.351562 8.46875 -17.96875 C 7.726562 -17.582031 7.359375 -17.050781 7.359375 -16.375 C 7.359375 -15.71875 7.707031 -15.234375 8.40625 -14.921875 C 9.101562 -14.617188 9.972656 -14.367188 11.015625 -14.171875 C 12.066406 -13.984375 13.207031 -13.785156 14.4375 -13.578125 C 15.664062 -13.367188 16.800781 -13.035156 17.84375 -12.578125 C 18.894531 -12.117188 19.769531 -11.484375 20.46875 -10.671875 C 21.164062 -9.859375 21.515625 -8.738281 21.515625 -7.3125 C 21.515625 -5.957031 21.234375 -4.785156 20.671875 -3.796875 C 20.109375 -2.804688 19.367188 -1.992188 18.453125 -1.359375 C 17.535156 -0.722656 16.46875 -0.25 15.25 0.0625 C 14.039062 0.375 12.800781 0.53125 11.53125 0.53125 C 8.875 0.53125 6.648438 0.132812 4.859375 -0.65625 C 3.066406 -1.457031 1.671875 -2.421875 0.671875 -3.546875 L 4.75 -6.703125 C 5.363281 -5.785156 6.234375 -5.085938 7.359375 -4.609375 C 8.484375 -4.140625 9.769531 -3.90625 11.21875 -3.90625 C 11.875 -3.90625 12.46875 -3.984375 13 -4.140625 C 13.53125 -4.304688 13.988281 -4.515625 14.375 -4.765625 C 14.757812 -5.015625 15.050781 -5.296875 15.25 -5.609375 C 15.457031 -5.921875 15.5625 -6.222656 15.5625 -6.515625 C 15.5625 -7.140625 15.222656 -7.609375 14.546875 -7.921875 C 13.867188 -8.234375 13.007812 -8.488281 11.96875 -8.6875 C 10.9375 -8.894531 9.820312 -9.109375 8.625 -9.328125 C 7.425781 -9.554688 6.304688 -9.90625 5.265625 -10.375 C 4.234375 -10.851562 3.378906 -11.503906 2.703125 -12.328125 C 2.023438 -13.160156 1.6875 -14.285156 1.6875 -15.703125 C 1.6875 -16.972656 1.941406 -18.066406 2.453125 -18.984375 C 2.972656 -19.898438 3.675781 -20.65625 4.5625 -21.25 C 5.457031 -21.84375 6.507812 -22.28125 7.71875 -22.5625 C 8.925781 -22.84375 10.226562 -22.984375 11.625 -22.984375 C 12.957031 -22.984375 14.140625 -22.832031 15.171875 -22.53125 C 16.203125 -22.238281 17.09375 -21.875 17.84375 -21.4375 C 18.601562 -21.007812 19.234375 -20.5625 19.734375 -20.09375 C 20.242188 -19.625 20.628906 -19.222656 20.890625 -18.890625 Z M 17.125 -15.34375 "/></g></g></g><g fill="rgb(51.759338%, 66.268921%, 54.899597%)" fill-opacity="1"><g transform="translate(134.999994, 45.939557)"><g><path d="M 0.359375 -22.453125 L 5.9375 -22.453125 L 9.71875 -7.1875 L 9.796875 -7.1875 L 14.015625 -22.453125 L 18.890625 -22.453125 L 23.109375 -7.1875 L 23.203125 -7.1875 L 26.96875 -22.453125 L 32.5625 -22.453125 L 26.078125 0 L 20.765625 0 L 16.5 -15.03125 L 16.40625 -15.03125 L 12.15625 0 L 6.828125 0 Z M 0.359375 -22.453125 "/></g></g></g><g fill="rgb(51.759338%, 66.268921%, 54.899597%)" fill-opacity="1"><g transform="translate(167.903025, 45.939557)"><g><path d="M 16.015625 -11.21875 C 15.660156 -11.039062 15.265625 -10.894531 14.828125 -10.78125 C 14.398438 -10.664062 13.9375 -10.546875 13.4375 -10.421875 L 10.46875 -9.796875 C 9.96875 -9.679688 9.488281 -9.554688 9.03125 -9.421875 C 8.570312 -9.296875 8.171875 -9.117188 7.828125 -8.890625 C 7.484375 -8.671875 7.21875 -8.382812 7.03125 -8.03125 C 6.84375 -7.675781 6.75 -7.234375 6.75 -6.703125 C 6.75 -5.835938 7.085938 -5.15625 7.765625 -4.65625 C 8.441406 -4.15625 9.269531 -3.90625 10.25 -3.90625 C 10.863281 -3.90625 11.507812 -3.984375 12.1875 -4.140625 C 12.875 -4.304688 13.5 -4.550781 14.0625 -4.875 C 14.625 -5.207031 15.085938 -5.640625 15.453125 -6.171875 C 15.828125 -6.703125 16.015625 -7.320312 16.015625 -8.03125 Z M 21.421875 -3.765625 C 21.421875 -2.617188 21.523438 -1.765625 21.734375 -1.203125 C 21.941406 -0.640625 22.117188 -0.238281 22.265625 0 L 16.546875 0 C 16.367188 -0.269531 16.234375 -0.601562 16.140625 -1 C 16.054688 -1.394531 16.015625 -1.742188 16.015625 -2.046875 C 13.878906 -0.328125 11.4375 0.53125 8.6875 0.53125 C 7.625 0.53125 6.625 0.367188 5.6875 0.046875 C 4.757812 -0.273438 3.957031 -0.738281 3.28125 -1.34375 C 2.601562 -1.957031 2.0625 -2.695312 1.65625 -3.5625 C 1.257812 -4.4375 1.0625 -5.421875 1.0625 -6.515625 C 1.0625 -7.609375 1.257812 -8.5625 1.65625 -9.375 C 2.0625 -10.195312 2.585938 -10.878906 3.234375 -11.421875 C 3.890625 -11.972656 4.625 -12.414062 5.4375 -12.75 C 6.25 -13.09375 7.066406 -13.351562 7.890625 -13.53125 L 10.15625 -13.96875 C 10.632812 -14.0625 11.144531 -14.160156 11.6875 -14.265625 C 12.238281 -14.367188 12.78125 -14.476562 13.3125 -14.59375 C 13.84375 -14.707031 14.335938 -14.820312 14.796875 -14.9375 C 15.253906 -15.0625 15.660156 -15.179688 16.015625 -15.296875 L 16.015625 -15.96875 C 16.015625 -17.0625 15.597656 -17.804688 14.765625 -18.203125 C 13.941406 -18.609375 12.9375 -18.8125 11.75 -18.8125 C 10.15625 -18.8125 9.0625 -18.554688 8.46875 -18.046875 C 7.875 -17.546875 7.578125 -16.675781 7.578125 -15.4375 L 2.171875 -15.65625 C 2.171875 -16.988281 2.4375 -18.113281 2.96875 -19.03125 C 3.5 -19.945312 4.207031 -20.703125 5.09375 -21.296875 C 5.988281 -21.890625 7.007812 -22.316406 8.15625 -22.578125 C 9.3125 -22.847656 10.507812 -22.984375 11.75 -22.984375 C 12.96875 -22.984375 14.148438 -22.898438 15.296875 -22.734375 C 16.453125 -22.566406 17.488281 -22.21875 18.40625 -21.6875 C 19.320312 -21.15625 20.050781 -20.410156 20.59375 -19.453125 C 21.144531 -18.492188 21.421875 -17.210938 21.421875 -15.609375 Z M 21.421875 -3.765625 "/></g></g></g><g fill="rgb(51.759338%, 66.268921%, 54.899597%)" fill-opacity="1"><g transform="translate(191.715592, 45.939557)"><g><path d="M 2.65625 -22.453125 L 8.078125 -22.453125 L 8.078125 -19.34375 L 8.15625 -19.34375 C 8.8125 -20.644531 9.726562 -21.578125 10.90625 -22.140625 C 12.09375 -22.703125 13.484375 -22.984375 15.078125 -22.984375 L 15.078125 -17.484375 C 14.160156 -17.484375 13.28125 -17.363281 12.4375 -17.125 C 11.59375 -16.882812 10.847656 -16.503906 10.203125 -15.984375 C 9.554688 -15.472656 9.039062 -14.796875 8.65625 -13.953125 C 8.269531 -13.109375 8.078125 -12.082031 8.078125 -10.875 L 8.078125 0 L 2.65625 0 Z M 2.65625 -22.453125 "/></g></g></g><g fill="rgb(51.759338%, 66.268921%, 54.899597%)" fill-opacity="1"><g transform="translate(207.324577, 45.939557)"><g><path d="M 17.828125 -14.109375 C 17.828125 -14.398438 17.726562 -14.796875 17.53125 -15.296875 C 17.34375 -15.804688 17.039062 -16.296875 16.625 -16.765625 C 16.21875 -17.242188 15.695312 -17.660156 15.0625 -18.015625 C 14.425781 -18.367188 13.648438 -18.546875 12.734375 -18.546875 C 11.128906 -18.546875 9.832031 -18.109375 8.84375 -17.234375 C 7.851562 -16.359375 7.210938 -15.316406 6.921875 -14.109375 Z M 6.921875 -9.9375 C 6.953125 -9.101562 7.128906 -8.347656 7.453125 -7.671875 C 7.773438 -6.992188 8.207031 -6.414062 8.75 -5.9375 C 9.300781 -5.46875 9.914062 -5.097656 10.59375 -4.828125 C 11.28125 -4.566406 11.992188 -4.4375 12.734375 -4.4375 C 13.796875 -4.4375 14.703125 -4.566406 15.453125 -4.828125 C 16.210938 -5.097656 16.847656 -5.410156 17.359375 -5.765625 C 17.878906 -6.117188 18.28125 -6.472656 18.5625 -6.828125 C 18.84375 -7.179688 19.054688 -7.445312 19.203125 -7.625 L 23.78125 -4.96875 C 23.363281 -4.320312 22.835938 -3.671875 22.203125 -3.015625 C 21.566406 -2.367188 20.804688 -1.773438 19.921875 -1.234375 C 19.035156 -0.703125 18 -0.273438 16.8125 0.046875 C 15.625 0.367188 14.265625 0.53125 12.734375 0.53125 C 10.898438 0.53125 9.269531 0.238281 7.84375 -0.34375 C 6.425781 -0.9375 5.226562 -1.757812 4.25 -2.8125 C 3.28125 -3.863281 2.535156 -5.101562 2.015625 -6.53125 C 1.492188 -7.96875 1.234375 -9.53125 1.234375 -11.21875 C 1.234375 -12.90625 1.492188 -14.460938 2.015625 -15.890625 C 2.535156 -17.328125 3.28125 -18.570312 4.25 -19.625 C 5.226562 -20.675781 6.425781 -21.5 7.84375 -22.09375 C 9.269531 -22.6875 10.898438 -22.984375 12.734375 -22.984375 C 14.597656 -22.984375 16.207031 -22.675781 17.5625 -22.0625 C 18.925781 -21.457031 20.050781 -20.59375 20.9375 -19.46875 C 21.820312 -18.34375 22.472656 -16.972656 22.890625 -15.359375 C 23.304688 -13.753906 23.515625 -11.945312 23.515625 -9.9375 Z M 6.921875 -9.9375 "/></g></g></g></svg>